Coordinates
version=1
nRows=19
nColumns=36
inDegrees=yes

Units are S.I. units (second, meters, Newtons, ...)
If the header above contains a line with 'inDegrees', this indicates whether rotational values are in degrees (yes) or radians (no).

endheader
time	pelvis_tilt	pelvis_list	pelvis_rotation	pelvis_tx	pelvis_ty	pelvis_tz	hip_flexion_r	hip_adduction_r	hip_rotation_r	knee_angle_r	knee_angle_r_beta	ankle_angle_r	subtalar_angle_r	mtp_angle_r	hip_flexion_l	hip_adduction_l	hip_rotation_l	knee_angle_l	knee_angle_l_beta	ankle_angle_l	subtalar_angle_l	mtp_angle_l	lumbar_extension	lumbar_bending	lumbar_rotation	arm_flex_r	arm_add_r	arm_rot_r	elbow_flex_r	pro_sup_r	arm_flex_l	arm_add_l	arm_rot_l	elbow_flex_l	pro_sup_l
      0.00000000	      4.99897945	      1.19404270	      3.95523037	      0.06994625	      0.94871890	      0.04804528	     -6.30472888	     -5.53875841	     -4.34070574	      3.99476782	      0.06972185	      9.47686375	      1.11510185	     -6.54146122	     -5.00356566	     -6.68395065	     -0.98968629	      5.13615192	      0.08964276	     10.46634105	     -1.68648739	     -6.54146122	    -10.61644867	      1.35518547	     -4.72690199	      8.53847457	     -4.49538126	     26.78570629	     25.46856823	     74.59047429	      4.63953109	     -6.00547522	     25.63610070	     32.33140608	     67.14403599
      0.01666670	      3.06938157	      0.49476487	      3.31817604	      0.07286108	      0.94668702	      0.04812239	     -4.13722759	     -4.72709640	     -2.80032762	      3.96839900	      0.06926163	     11.27001838	      1.21059992	     -6.67093211	     -3.24690524	     -7.03586098	     -0.54423973	      4.19101009	      0.07314693	      9.68614374	     -1.06676256	     -6.67093211	     -7.30350482	      2.11036578	     -4.49909047	      7.78130088	     -4.26048853	     24.55014152	     25.01316705	     73.19875550	      3.72803417	     -5.18524848	     23.40410787	     31.45806087	     66.26913227
      0.03333330	      1.79180162	      0.46476079	      2.90801448	      0.07409371	      0.94430514	      0.04871990	     -2.87705472	     -4.65178249	     -2.52809999	      3.57986350	      0.06248040	     10.74301565	     -0.02802982	     -6.78901428	     -1.91542133	     -7.11789253	     -0.88628596	      4.10717042	      0.07168365	      9.52247722	     -0.03158312	     -6.78901428	     -5.59898004	      1.73001679	     -4.04958388	      7.40440758	     -3.67706527	     22.53790812	     24.55489209	     72.82467328	      3.66098471	     -5.24247078	     22.49227117	     31.06041190	     66.26477965
      0.05000000	      2.09600800	      0.68402777	      2.65776137	      0.07776467	      0.94289111	      0.04795073	     -3.62330040	     -4.90820217	     -2.42475321	      2.87269732	      0.05013803	     11.01008460	      0.18841754	     -6.85361633	     -2.87536687	     -6.97902829	     -0.72397180	      3.23916150	      0.05653403	      9.15675679	     -0.19430338	     -6.85361633	     -5.75179887	      1.34285087	     -3.58619036	      6.98393953	     -3.62750475	     21.90736014	     24.99466982	     72.38041122	      3.54871356	     -5.70157084	     22.62344423	     31.60125215	     66.34485537
      0.06666670	      1.76555467	      0.77176395	      2.42954752	      0.07812978	      0.94319162	      0.04902566	     -3.51750551	     -4.96946719	     -2.16441903	      2.45871302	      0.04291264	     11.04125140	      0.07993093	     -7.18517785	     -2.93763349	     -6.95190540	     -0.83343667	      2.73812575	      0.04778931	      9.37237261	      0.23587859	     -7.18517785	     -5.25097432	      1.18780019	     -2.85206917	      6.21099918	     -3.83871788	     21.21261267	     25.84054844	     76.73062353	      3.74372349	     -6.18000693	     24.59611411	     31.63806955	     72.04042388
      0.08333330	      1.58981932	      0.85257099	      2.20655972	      0.07940624	      0.94239774	      0.04908785	     -3.47866547	     -5.04859306	     -1.95332648	      2.18635323	      0.03815906	     10.97899502	     -0.07952648	     -7.36934514	     -3.04182813	     -6.86516893	     -0.91614432	      2.47732892	      0.04323755	      9.51792486	      0.22818511	     -7.36934514	     -4.86555087	      1.09166326	     -2.52839824	      5.94613920	     -4.25726565	     23.45042814	     26.24828912	     74.75637882	      3.67847892	     -6.39401999	     25.60054336	     31.80403025	     72.26093053
      0.10000000	      1.25530859	      0.95007972	      2.04878026	      0.07796031	      0.94120219	      0.04889499	     -3.19367033	     -5.17732911	     -1.74237564	      2.00899466	      0.03506357	     11.11352417	     -0.14736803	     -7.43052056	     -2.83780009	     -6.73355437	     -0.80176784	      2.30307475	      0.04019624	      9.70696077	     -0.01774694	     -7.43052056	     -4.39122965	      1.02994950	     -2.19803611	      5.96631176	     -4.67612756	     25.99659845	     26.44965944	     71.98954962	      3.90799083	     -6.59283233	     27.48971266	     31.71302432	     70.51787202
      0.11666670	      1.03798010	      1.03980365	      1.96464610	      0.07527807	      0.94162556	      0.04933746	     -2.96711603	     -5.29651236	     -1.74542578	      1.86553087	      0.03255966	     11.02921156	     -0.15858647	     -7.46237716	     -2.64296365	     -6.59946093	     -0.74063530	      2.16445038	      0.03777679	      9.81288050	     -0.08015762	     -7.46237716	     -4.24246998	      0.96553784	     -1.96612343	      6.08351500	     -5.03880181	     27.89882033	     26.82011269	     69.17781923	      4.15045545	     -6.73108407	     28.74795031	     31.78968399	     68.45528573
      0.13333330	      1.01080489	      1.05506576	      1.95541695	      0.07954700	      0.94659894	      0.05026919	     -2.98587717	     -5.28761452	     -1.74221140	      1.86946143	      0.03262826	     11.02494172	     -0.15644493	     -7.46238004	     -2.64828336	     -6.59827384	     -0.73686080	      2.16704545	      0.03782208	      9.81086118	     -0.07860877	     -7.46238004	     -4.24472301	      0.96626771	     -1.96476441	      6.08932817	     -5.04099435	     27.90003329	     26.82126198	     69.17866032	      4.15267537	     -6.73064193	     28.74860986	     31.78891448	     68.45627321
      0.15000000	      0.72294271	      1.13252997	      1.70182396	      0.08452474	      0.94488067	      0.05085241	     -2.98127797	     -5.35311384	     -1.19063856	      1.47615838	      0.02576382	     10.47890174	     -0.44642691	     -7.48063406	     -2.72655789	     -6.49756150	     -0.90215400	      1.73567856	      0.03029331	      9.50713203	     -0.05235098	     -7.48063406	     -3.49031251	      0.84023218	     -1.69049436	      5.95188384	     -5.46827983	     30.81744528	     26.73032754	     68.78804205	      4.04798362	     -6.79424517	     30.22924727	     30.97201266	     68.80416663
      0.16666670	      0.62871105	      1.16415594	      1.58496019	      0.08413403	      0.94291901	      0.05060764	     -3.05528153	     -5.37485075	     -0.95602052	      1.33638814	      0.02332437	     10.34501235	     -0.60087867	     -7.49587885	     -2.83868880	     -6.44946838	     -1.03677390	      1.56577618	      0.02732795	      9.55878767	      0.02288863	     -7.49587885	     -3.19333229	      0.79974864	     -1.69818884	      5.86879318	     -5.57453257	     31.29072360	     26.67413621	     70.07375036	      3.76111546	     -6.82279301	     29.85388537	     30.80168830	     71.81989241
      0.18333330	      0.50524453	      1.17708876	      1.57168763	      0.08422427	      0.94730156	      0.05096813	     -3.08130856	     -5.37148746	     -0.96482757	      1.19652800	      0.02088335	     10.23355846	     -0.43459056	     -7.49598836	     -2.88949814	     -6.43544070	     -1.13242677	      1.38696106	      0.02420704	      9.34396216	      0.07856664	     -7.49598836	     -2.85118755	      0.78645415	     -1.70247511	      5.66703851	     -5.58747574	     31.32523844	     26.55410599	     70.02006221	      3.57159330	     -6.81936406	     29.91891859	     30.47733022	     71.77145321
      0.20000000	      0.47250453	      1.18211426	      1.50183249	      0.08264621	      0.94644902	      0.05112995	     -3.10493683	     -5.36495929	     -0.74379086	      1.06227906	      0.01854027	     10.05179694	     -0.59205005	     -7.49932151	     -2.98206825	     -6.41946802	     -1.16372240	      1.23256047	      0.02151224	      9.19672467	      0.03597282	     -7.49932151	     -2.76640774	      0.79903767	     -1.58876346	      5.65137866	     -5.74411114	     32.05357768	     26.44828037	     69.87357425	      3.76165650	     -6.94290600	     31.05531912	     30.03777985	     72.13638447
      0.21666670	      0.45431099	      1.17146142	      1.47533859	      0.08399455	      0.94728064	      0.05149780	     -3.14275525	     -5.33135204	     -0.74501689	      0.93675076	      0.01634938	     10.01609721	     -0.38803193	     -7.49988687	     -3.06852831	     -6.42988461	     -1.31339567	      1.10717485	      0.01932385	      9.05995433	      0.26316693	     -7.49988687	     -2.68871539	      0.82345568	     -1.57656763	      5.56047158	     -5.72208222	     31.87767457	     26.23052849	     70.16831687	      3.70569112	     -6.92812063	     30.92056205	     29.75712106	     72.97686513
      0.23333330	      0.46919518	      1.18476073	      1.53902247	      0.08578813	      0.94539146	      0.05058603	     -3.29187169	     -5.34796279	     -0.77645393	      0.84028834	      0.01466580	      9.84818370	     -0.38779994	     -7.49997558	     -3.16109918	     -6.41213980	     -1.44659914	      0.96729816	      0.01688254	      8.86806309	      0.54575718	     -7.49997558	     -2.60726292	      0.84279861	     -1.62211859	      5.44228910	     -5.73887499	     31.92939883	     26.06455681	     69.99064394	      3.64925351	     -6.96516639	     31.06977570	     29.63167532	     73.30677726
      0.25000000	      0.39571094	      1.18176543	      1.49768146	      0.08408944	      0.94835012	      0.05125771	     -3.22221797	     -5.33789031	     -0.78360398	      0.78558497	      0.01371104	      9.90397686	     -0.20500877	     -7.49998241	     -3.14011616	     -6.39926305	     -1.62027166	      0.88653701	      0.01547299	      8.77823888	      0.74915432	     -7.49998241	     -2.52127254	      0.87143205	     -1.58553954	      5.42916173	     -5.77703443	     32.16104310	     25.92749791	     69.01845875	      3.70325766	     -7.03140921	     31.67974877	     29.45003926	     72.13652778
      0.26666670	      0.37597548	      1.14645907	      1.48855200	      0.08140597	      0.94499058	      0.05082532	     -3.13565608	     -5.29462830	     -0.49619481	      0.73538967	      0.01283497	      9.80577286	     -0.61619670	     -7.49999540	     -3.10208827	     -6.41791780	     -1.73470946	      0.84063515	      0.01467185	      8.80800982	      0.87130661	     -7.49999540	     -2.58351734	      0.95959120	     -1.47022925	      5.47842327	     -5.84452195	     32.05772826	     25.86521920	     69.04796776	      3.94166965	     -7.05948715	     32.02567822	     29.27035127	     72.94083721
      0.28333330	      0.36766098	      1.13633649	      1.52485169	      0.08170406	      0.94345233	      0.05075335	     -3.07740314	     -5.28705452	     -0.58558486	      0.71188088	      0.01242467	      9.88286256	     -0.54980937	     -7.49999724	     -3.06755553	     -6.41599914	     -1.81107031	      0.78929688	      0.01377583	      8.75995451	      1.03741229	     -7.49999724	     -2.64510230	      1.00482684	     -1.51251678	      5.59740469	     -5.89162282	     32.38345863	     25.76868470	     68.01346738	      4.07182846	     -7.15572467	     32.54164450	     29.26689945	     71.59215079
      0.30000000	      0.27636347	      1.10782483	      1.48668917	      0.08300575	      0.94628812	      0.05076598	     -2.92656709	     -5.25950565	     -0.55711255	      0.70617435	      0.01232507	      9.85035008	     -0.51441560	     -7.49999915	     -2.96899416	     -6.43205355	     -2.11318806	      0.73750433	      0.01287188	      8.85374939	      1.43946697	     -7.49999915	     -2.53402550	      1.06888797	     -1.39976284	      5.65608763	     -5.95963062	     33.00065825	     25.60224560	     66.23483795	      4.23979714	     -7.19508422	     33.37680440	     29.04706589	     69.43349217
